<svg width="2795" height="639" viewBox="0 0 2795 639" fill="none" xmlns="http://www.w3.org/2000/svg">
<path d="M933.72 163.72H1124.52C1129.92 163.72 1132.44 166.24 1132.44 171.64V205.84C1132.44 211.24 1129.92 213.76 1124.52 213.76H944.16C930.48 213.76 925.08 221.32 925.08 233.92V246.16C925.08 259.48 931.2 266.32 943.8 266.32H1078.8C1120.2 266.32 1141.8 288.64 1141.8 328.24V357.04C1141.8 391.96 1121.64 415.72 1078.08 415.72H878.64C873.24 415.72 870.36 413.2 870.36 407.8V373.6C870.36 368.2 873.24 365.68 878.64 365.68H1067.64C1081.32 365.68 1086.72 358.12 1086.72 345.52V330.76C1086.72 317.44 1080.6 310.6 1068 310.6H933C891.6 310.6 870 288.28 870 248.68V222.4C870 187.48 890.16 163.72 933.72 163.72Z" fill="white"/>
<path d="M1280.91 163.72H1392.15C1465.23 163.72 1492.95 189.64 1492.95 258.76V314.56C1492.95 373.24 1472.79 400.96 1422.03 407.8L1463.43 465.04C1465.23 467.56 1465.59 474.04 1458.75 474.04H1412.67C1406.55 474.04 1404.75 472.6 1402.59 469.72L1361.19 409.6H1280.91C1208.19 409.6 1180.11 383.68 1180.11 314.56V258.76C1180.11 189.64 1208.19 163.72 1280.91 163.72ZM1235.19 262.72V310.6C1235.19 348.4 1245.99 359.56 1283.07 359.56H1389.99C1427.07 359.56 1437.87 348.4 1437.87 310.6V262.72C1437.87 224.92 1427.07 213.76 1389.99 213.76H1283.07C1245.99 213.76 1235.19 224.92 1235.19 262.72Z" fill="white"/>
<path d="M1545.28 163.72H1584.16C1589.56 163.72 1592.08 166.24 1592.08 171.64V315.28C1592.08 353.44 1602.88 364.6 1639.96 364.6H1785.76C1791.16 364.6 1793.68 367.12 1793.68 372.52V407.8C1793.68 413.2 1791.16 415.72 1785.76 415.72H1637.8C1565.08 415.72 1537 389.8 1537 320.68V171.64C1537 166.24 1539.88 163.72 1545.28 163.72Z" fill="white"/>
<path d="M1909.52 218.08H2010.32C2075.12 218.08 2096 238.96 2096 291.16V343C2096 395.2 2075.12 415.72 2010.32 415.72H1875.32V487.36C1875.32 492.76 1872.8 495.28 1867.4 495.28H1832.12C1826.72 495.28 1823.84 492.76 1823.84 487.36V291.16C1823.84 238.96 1844.72 218.08 1909.52 218.08ZM1875.32 300.88V372.52H2005.28C2036.6 372.52 2044.88 363.52 2044.88 332.92V300.88C2044.88 270.64 2036.6 261.28 2005.28 261.28H1914.56C1883.6 261.28 1875.32 270.64 1875.32 300.88Z" fill="white"/>
<path d="M2146.79 218.08H2182.07C2187.47 218.08 2189.99 220.96 2189.99 226.36V407.8C2189.99 413.2 2187.47 415.72 2182.07 415.72H2146.79C2141.39 415.72 2138.87 413.2 2138.87 407.8V226.36C2138.87 220.96 2141.39 218.08 2146.79 218.08ZM2146.79 145H2182.07C2187.47 145 2189.99 147.52 2189.99 152.92V187.12C2189.99 192.52 2187.47 195.4 2182.07 195.4H2146.79C2141.39 195.4 2138.51 192.52 2138.51 187.12V152.92C2138.51 147.52 2141.39 145 2146.79 145Z" fill="white"/>
<path d="M2320.14 218.08H2420.94C2485.74 218.08 2506.62 238.96 2506.62 291.16V343C2506.62 395.2 2485.74 415.72 2420.94 415.72H2285.94V487.36C2285.94 492.76 2283.42 495.28 2278.02 495.28H2242.74C2237.34 495.28 2234.46 492.76 2234.46 487.36V291.16C2234.46 238.96 2255.34 218.08 2320.14 218.08ZM2285.94 300.88V372.52H2415.9C2447.22 372.52 2455.5 363.52 2455.5 332.92V300.88C2455.5 270.64 2447.22 261.28 2415.9 261.28H2325.18C2294.22 261.28 2285.94 270.64 2285.94 300.88Z" fill="white"/>
<path d="M2626.9 218.08H2732.38C2781.7 218.08 2794.66 233.56 2794.66 277.12V311.32C2794.66 326.8 2788.18 331.84 2774.14 331.84H2592.34V340.48C2592.34 363.16 2600.62 372.52 2631.94 372.52H2782.06C2786.38 372.52 2788.54 374.68 2788.54 379V409.24C2788.54 413.56 2786.38 415.72 2782.06 415.72H2626.9C2562.1 415.72 2541.22 395.2 2541.22 343V291.16C2541.22 238.96 2562.1 218.08 2626.9 218.08ZM2592.34 290.08V299.8H2738.14C2742.46 299.8 2744.26 298.36 2744.26 293.68V278.56C2744.26 263.8 2738.86 258.04 2722.3 258.04H2631.94C2600.62 258.04 2592.34 267.04 2592.34 290.08Z" fill="white"/>
<path fill-rule="evenodd" clip-rule="evenodd" d="M79.4405 383.998L103.667 395.958L127.893 409.626L243.433 469.425C291.886 495.054 347.793 495.054 396.245 469.425L459.606 436.963L536.012 395.958L619.872 351.535C631.053 344.701 638.507 334.45 638.507 320.782V259.273L610.554 274.651L459.606 354.952L388.791 392.54C366.428 404.5 342.202 409.626 319.839 409.626C295.613 409.626 273.25 404.5 250.888 392.54L180.073 354.952L105.53 313.947L1.17119 259.273V320.782C1.17119 334.45 6.76186 344.701 19.8068 351.535L79.4405 383.998ZM498.741 83.0873L619.872 146.304C644.098 159.972 645.962 192.434 621.735 204.394L366.428 339.37C336.611 354.747 303.067 354.747 273.25 339.37L241.57 322.285L511.785 180.475C515.513 178.766 515.513 173.64 511.785 171.932L467.06 148.012C461.469 144.595 455.879 144.595 450.288 148.012L221.071 269.32C194.981 282.988 167.028 282.988 140.938 269.32L17.9432 204.394C-6.28303 192.434 -6.28303 159.972 19.8068 146.304L273.25 13.036C303.067 -4.04953 336.611 -4.04927 366.428 11.3278L398.109 28.4135L126.029 171.932C124.166 173.64 124.166 178.766 126.029 180.475L172.618 204.394C178.209 206.103 183.8 206.103 189.39 204.394L260.205 166.806L418.608 81.3783C444.697 69.4184 472.651 69.4189 498.741 83.0873ZM51.4872 312.239L75.7134 325.907C77.577 327.616 79.4405 329.324 79.4405 331.033V353.244C79.4405 353.244 79.4405 353.244 77.577 354.952H75.7134L51.4872 341.284C47.7601 339.575 47.7601 337.867 47.7601 336.158V313.947C47.7601 313.947 47.7601 313.947 47.7601 312.239C49.6236 312.239 49.6236 312.239 51.4872 312.239ZM109.257 344.701L247.161 416.461C249.024 418.169 250.888 419.878 250.888 421.586V443.798C250.888 443.798 250.888 445.506 249.024 445.506C249.024 445.506 249.024 445.506 247.161 445.506L109.257 372.038C107.394 370.33 105.53 368.621 105.53 366.912V346.409C105.53 344.701 105.53 344.701 107.394 344.701C107.394 342.993 109.257 342.993 109.257 344.701ZM51.4872 462.592L75.7134 476.26C77.577 476.26 79.4405 477.968 79.4405 481.386V501.888C79.4405 501.888 79.4405 503.597 77.577 503.597C77.577 503.597 77.577 503.597 75.7134 503.597L51.4872 489.928C47.7601 488.22 47.7601 486.511 47.7601 484.803V464.3C47.7601 462.591 47.7601 462.592 47.7601 462.592C49.6236 460.883 49.6236 460.883 51.4872 462.592ZM109.257 493.345L247.161 566.813C249.024 566.813 250.888 568.522 250.888 571.939V592.442C250.888 594.15 250.888 594.15 249.024 594.15C249.024 594.15 249.024 594.15 247.161 594.15L109.257 520.682C107.394 520.682 105.53 518.974 105.53 515.557V495.054C105.53 493.346 105.53 493.345 107.394 493.345H109.257ZM19.8068 500.18L103.667 544.602L180.073 585.608L243.433 619.779C291.886 645.407 347.793 645.407 396.245 619.779L459.606 585.608L536.012 544.602L619.872 500.18C631.053 495.054 638.507 483.094 638.507 471.134V407.918L610.554 423.295L509.922 476.26L459.606 503.597L388.791 541.185C366.428 553.145 342.202 558.271 319.839 558.271C295.613 558.271 273.25 553.145 250.888 541.185L215.48 522.391L99.9396 460.883L29.1245 423.295L1.17119 407.918V471.134C1.17119 483.094 6.76186 495.054 19.8068 500.18Z" fill="url(#paint0_linear_4_4)"/>
<defs>
<linearGradient id="paint0_linear_4_4" x1="319.5" y1="627.854" x2="319.5" y2="-49.1068" gradientUnits="userSpaceOnUse">
<stop stop-color="#BC25F5"/>
<stop offset="0.45098" stop-color="#7F84F8"/>
<stop offset="1" stop-color="#2FE4FC"/>
</linearGradient>
</defs>
</svg>
